<?xml version="1.0" encoding="UTF-8"?>
<svg version="1.1" viewBox="0 0 1560 1020" width="1280" height="1280" xmlns="http://www.w3.org/2000/svg">
<path transform="translate(0)" d="m0 0h1560v1020h-1560z" fill="#FCFCFE"/>
<path transform="translate(573,82)" d="m0 0h106l1 148 4 21 4 8 4 4v2l14 7 16 4 25 6 13 5 6 4 3 4-2 5-8 7-12 4-31 5-13 1-28 1-28 3-20 5-10 5-2 2 1 5 5 4 16 7 20 5 10 4 6 7 4 11 2 15v220l-4 1h-84l-18-1-1-1-1-237-4-11-5-5-10-4-26-5-12-6-5-5v-5l5-4 8-4 19-4 36-3 37-3 17-3 15-4 9-5 4-4-2-7-7-6-19-7-22-5-16-4-10-5-8-9-2-6-1-7v-159z" fill="#0000FE"/>
<path transform="translate(706,82)" d="m0 0h105l1 60v49l1 41 3 16 5 12 3 3v2l14 7 16 4 22 5 15 5 8 6 2 5-6 7-12 6-16 3-19 3-38 2-37 4-17 5-6 4-1 1v6l4 4 8 4 13 4 21 6 6 4 4 5 4 10 2 11 1 19v206l-4 1h-73l-30-1-1-231-2-12-6-10-8-5-27-4-11-4-8-6-2-3 1-4 8-6 12-4 21-3 45-3 27-3 18-4 11-4 5-3 3-5-1-6-6-5-13-6-21-5-20-4-12-5-8-7-4-9-1-5v-162z" fill="#0000FE"/>
<path transform="translate(841,82)" d="m0 0h105l1 140 2 19 4 13 6 9 7 6 13 5 31 7 13 4 9 5 4 5-1 5-8 6-15 5-23 4-25 2-42 3-19 3-16 6-5 5 1 4 5 4 16 7 26 7 7 5 5 8 3 10 1 8v224l-4 1h-75l-26-1-1-1-1-231-3-12-5-9-8-4-14-3-20-4-9-5-5-6 1-4 4-4 9-4 20-4 37-3 25-2 21-3 19-4 10-5 5-6-1-6-6-5-20-8-24-5-15-4-10-5-7-8-3-10v-163z" fill="#0000FE"/>
<path transform="translate(744,669)" d="m0 0h55l17 2 12 4 10 6 7 7 7 14 2 9v12l-2 9-5 10-8 9-10 6 2 5 8 12 10 14 7 9v3h-30l-5-5-8-11-12-17-1-3h-23l-5-1v36l-1 1h-27l-3-2v-127z" fill="#0000FE"/>
<path transform="translate(1055,661)" d="m0 0 4 1 1 16v31l13-8 6-2 15-1 15 3 11 6 9 9 8 16 2 9v18l-5 15-5 8-5 6-10 7-12 5h-26l-12-6-7-4 2 9-1 1h-25l-3-3v-134l1-1z" fill="#0000FE"/>
<path transform="translate(934,698)" d="m0 0h11l15 3 12 6 8 7 7 11 4 11 1 5v16l-1 1h-74l6 12 4 2 9 4h15l12-4 5-4 5 2 9 10 3 4-2 4-12 8-12 4h-27l-13-3-10-5-10-9-7-11-4-12-1-5v-9l2-13 7-14 7-8 11-7 14-5z" fill="#0000FE"/>
<path transform="translate(422,698)" d="m0 0h11l16 3 12 6 7 6 5 9 2 8 1 9v60l-1 1h-25l-2-2 1-8-5 3-8 5-6 2h-23l-11-4-7-5-6-9-2-7v-8l3-10 7-8 9-5 5-2 9-1 23-1 9-1-3-9-5-5-8-3h-8l-15 3-10 5h-3l-8-16-1-3 5-4 10-5 14-3z" fill="#0000FE"/>
<path transform="translate(242,699)" d="m0 0h26l2 1v29l1 30 3 8 4 5 5 2h13l8-4 5-6 2-6 1-9 1-49 1-1h26l2 1v100h-27v-11l-5 2-8 6-9 3h-20l-10-3-9-6-6-7-4-8-3-15-1-17v-44z" fill="#0000FE"/>
<path transform="translate(578,698)" d="m0 0 13 1 10 3 9 6 7 8 4 10 2 12v61l-3 1h-16l-10-1-1-56-3-10-3-5-6-3h-16l-6 4-6 7-2 5v58l-1 1h-22l-7-1v-99l1-1h26l1 1v11l12-9 10-3z" fill="#0000FE"/>
<path transform="translate(1178,699)" d="m0 0h26l2 1 1 59 4 10 5 4 3 1h14l6-3 6-7 2-5 1-8 1-51 1-1h26l2 1v100h-27l-1-4 1-7-5 2-8 6-9 3h-19l-9-2-11-7-6-7-4-8-3-16-1-37 1-23z" fill="#0000FE"/>
<path transform="translate(115,669)" d="m0 0h27l1 1v105h65v24l-3 1h-89l-2-1v-129z" fill="#0000FE"/>
<path transform="translate(1347,661)" d="m0 0 5 1 1 77v60l-4 1-25-1-1-1v-125l1-11z" fill="#0000FE"/>
<path transform="translate(1424,698)" d="m0 0 3 1 1 50v50l-3 1h-15l-11-1-1-1v-98l1-1z" fill="#0000FE"/>
<path transform="translate(1080,722)" d="m0 0 15 2 8 5 5 9 1 4v17l-6 10-8 6-3 1h-15l-8-4-5-5-4-9v-17l5-10 8-7z" fill="#FCFDFE"/>
<path transform="translate(772,694)" d="m0 0h30l9 2 6 4 5 8 1 4v8l-4 10-5 5-7 3-5 1-29 1-1-1z" fill="#FCFDFE"/>
<path transform="translate(445,862)" d="m0 0 8 1 5 2 5-1 1-2 5 1 1 14v28l-3 9-7 6-7 2h-12l-10-3-4-3v-5l7 1 6 2h12l6-3 4-8 1-3-10 4h-14l-8-5-5-6-2-5v-8l4-10 6-5 5-2z" fill="#0000FE"/>
<path transform="translate(657,845)" d="m0 0h6l1 1v59l-1 2h-5l-2-5-4 1-5 3-10 1-9-4-7-8-2-5v-11l3-7 4-5 8-4 4-1h7l8 4 3-1v-19z" fill="#0000FE"/>
<path transform="translate(720,268)" d="m0 0 7 1 17 4 24 5 12 5 8 5 4 5-1 6-5 5-7 4-15 4-19 3-18 2-45 3-21 3-12 4-6 4h-5l-8 5-4-1-3-4v-2l-2-1 9-4 17-4 28-3 28-1 20-2 24-4 12-4 8-7 1-4-4-5-11-5-17-5-10-2v-2l-5-1-2-2z" fill="#FCFDFE"/>
<path transform="translate(583,862)" d="m0 0h7l8 3 7 8 2 6v13l-3 6-7 6-5 2-11 1-10-4-6-7-3-8 1-11 3-6 7-6z" fill="#0000FE"/>
<path transform="translate(948,863)" d="m0 0h13l6 3 6 7 3 10-1 10-6 8-8 5-12 1-8-3-7-7-3-7v-12l4-8 8-6z" fill="#0000FE"/>
<path transform="translate(1075,863)" d="m0 0h14l6 3 7 8 2 6v8l-4 10-6 5-6 3-10 1-10-4-7-8-2-5v-9l3-9 7-7z" fill="#0000FE"/>
<path transform="translate(1291,862)" d="m0 0 11 2 7 6 3 5 1 4v14l-4 6-9 6-3 1h-12l-8-4-6-8-2-5v-12l5-8 6-5z" fill="#0000FE"/>
<path transform="translate(904,280)" d="m0 0 5 1 12 5 6 7-1 6-8 7-10 4-21 4-25 3-44 3-21 3-13 4-6 4h-9l-7 2v2l-3-1-2-6 2-3 14-4 37-4 38-2 31-5 13-5 7-6 1-4-5-7 1-3 6-1z" fill="#FCFDFE"/>
<path transform="translate(700,862)" d="m0 0 10 1 8 7 3 5 2 7-1 5-11 1h-17l-7-1 4 8 5 3h13l5-2h6l-1 5-6 4-3 1h-13l-9-3-7-8-1-4v-15l5-8 6-4z" fill="#0000FE"/>
<path transform="translate(280,862)" d="m0 0h5l2 5 9-4 4-1h10l8 7 3 8v29h-8l-1-30-1-4-4-1h-10l-6 3-2 5-1 27h-8l-1-1v-40z" fill="#0000FE"/>
<path transform="translate(1408,654)" d="m0 0h10l8 4 4 7v9l-4 7-10 5h-7l-8-4-6-8v-8l3-6 5-4z" fill="#0000FE"/>
<path transform="translate(1181,862)" d="m0 0h5l2 2v41l-1 2h-5l-2-6-11 6h-8l-10-5-4-7-2-15v-16l1-1h8l1 26 2 7 7 3 7-1 5-4 3-7v-23z" fill="#0000FE"/>
<path transform="translate(183,862)" d="m0 0h5l1 1 1 22 2 10 3 3h10l6-3 3-7 1-24 2-2h6v44l-1 1h-5l-1-5-7 3-2 1h-13l-8-4-3-5-2-11v-23z" fill="#0000FE"/>
<path transform="translate(1329,862)" d="m0 0h5l3 4 12-4h9l6 3 5 6 2 9v25l-1 1h-8v-24l-2-9-3-2h-11l-5 2-2 2-1 4-1 27h-8z" fill="#0000FE"/>
<path transform="translate(368,862)" d="m0 0h5l1 6 10-5 10-1 8 3 4 5 2 4 1 8v23l-2 2h-5l-1-1-1-27-2-6-3-2h-10l-7 4-2 7-1 24h-8l-1-2 1-41z" fill="#0000FE"/>
<path transform="translate(838,862)" d="m0 0 5 1 1 3 5-1 10-3 10 1 7 6 3 14v22l-1 1h-7l-1-2v-22l-2-9-3-2h-11l-5 2-2 2-1 5-1 25-1 1h-7v-43z" fill="#0000FE"/>
<path transform="translate(1397,862)" d="m0 0h14l7 3-1 7-3 1-9-3-9 1-2 2v6l17 3 7 3 2 2 1 10-3 5-6 4-13 1-12-3-3-4 1-4 7 1 13 2 6-2v-6l-7-2-9-2-7-3-3-6 1-7 3-5 5-3z" fill="#0000FE"/>
<path transform="translate(747,862)" d="m0 0h11l9 3v5l-2 2-7-1h-13l-2 1v6l4 2 13 2 6 3 3 5v8l-5 6-5 2-11 1-12-3-4-4v-4l9 1 8 2 11-1v-8l-15-2-8-4-3-6v-7l3-5 6-3z" fill="#0000FE"/>
<path transform="translate(1025,862)" d="m0 0h13l8 3-1 7h-7l-3-2h-8l-5 3v6l16 3 9 4 2 6v6l-5 5-5 3-11 1-15-4-1-5 4-2 12 3 9-1 2-1 1-5-2-2-15-3-6-3-3-4v-9l3-5z" fill="#0000FE"/>
<path transform="translate(125,848)" d="m0 0h45l2 1v5l-3 2-17 1-1 48-1 1h-7l-1-49-16-1-3-2 1-5z" fill="#0000FE"/>
<path transform="translate(935,720)" d="m0 0h10l10 4 7 8 2 5-1 4h-46l-1-3 4-7 6-7z" fill="#FCFDFE"/>
<path transform="translate(420,758)" d="m0 0h26l1 1v7l-4 8-5 4-10 3h-9l-5-3-5-6 1-7 5-5z" fill="#FCFDFE"/>
<path transform="translate(1289,869)" d="m0 0 9 1 5 4 2 5v11l-3 5-5 4-9 1-6-3-5-8v-11l6-7z" fill="#FCFDFE"/>
<path transform="translate(584,869)" d="m0 0 9 2 5 5 1 2v13l-6 7-3 1h-11l-6-5-3-8 1-7 4-6 5-3z" fill="#FCFDFE"/>
<path transform="translate(639,869)" d="m0 0 8 1 6 4 3 6v9l-4 6-5 3-2 1h-10l-5-4-3-6v-8l3-7 6-4z" fill="#FCFDFE"/>
<path transform="translate(953,869)" d="m0 0 8 2 5 5 1 3v12l-3 5-5 3-7 1-7-2-5-6-1-3v-10l4-6 5-3z" fill="#FCFDFE"/>
<path transform="translate(1081,869)" d="m0 0 9 2 5 6 1 3v8l-4 8-7 3h-10l-6-5-2-6 1-9 3-5 5-4z" fill="#FCFDFE"/>
<path transform="translate(531,862)" d="m0 0h7l10 5 3 3v4l-7-1-7-3-9 1-6 5-1 3v10l3 6 4 3 9 1 8-4 4-1 2 2-1 4-6 5-7 2-9-1-9-4-5-7-2-6v-11l4-8 6-5z" fill="#0000FE"/>
<path transform="translate(444,869)" d="m0 0 9 1 6 4 2 3 1 8-2 6-6 5-3 1h-9l-8-5-2-7 1-8 3-5z" fill="#FCFDFE"/>
<path transform="translate(1210,852)" d="m0 0 6 1 1 9h11l1 5-1 2h-12l1 25 1 4 2 1h11l1 3-3 4-10 1-8-4-2-3-1-5-1-25-7-2-1-4 3-2h6v-9z" fill="#0000FE"/>
<path transform="translate(899,853)" d="m0 0h8v10l11-1 2 1-1 5-5 1h-8l1 20 2 8 5 2h6l2 1-1 5-4 2h-7l-8-4-3-6-1-8v-20l-8-1-1-2 3-3 5-2 1-7z" fill="#0000FE"/>
<path transform="translate(1121,845)" d="m0 0h6l1 1v43l-1 17h-7l-1-8v-43l1-9z" fill="#0000FE"/>
<path transform="translate(733,876)" d="m0 0 2 2 3 6 7 3 13 2 3 3-1 6-5 2-11-1-12-3v7l-5-1-1-3 2-5-4-4 1-7 4-1 2-5z" fill="#FCFDFE"/>
<path transform="translate(242,862)" d="m0 0h5l2 5 10-4h7l1 5-9 4-6 4-1 4-1 25-1 1h-7z" fill="#0000FE"/>
<path transform="translate(809,352)" d="m0 0h11l10 4 4 5 4 8v8h-2v-2l-6-2-4 8-3 1-2-2 1-4h2v-8l-3-1-3-3-3 2-4-2-1-4 1-7z" fill="#F6FEFE"/>
<path transform="translate(866,874)" d="m0 0h2l1 5-3 2-2 12-1 4v7l-2 5h-6l-5-3v-2h-2l-1-5 4-4 1-5-1-7 4-5 10-2z" fill="#F6FFFF"/>
<path transform="translate(1128,876)" d="m0 0h2l1 10 2 2 2 5h3l3-8 2-4h1l5 17 1 5h-5l-4-2 4 10-2 2-6-1-3-5-5-4 1-3v-3h-2z" fill="#F6FEFE"/>
<path transform="translate(342,862)" d="m0 0h5l1 1v43h-8v-43z" fill="#0000FE"/>
<path transform="translate(1245,863)" d="m0 0h8v43l-6 1-2-1z" fill="#0000FE"/>
<path transform="translate(422,721)" d="m0 0h8l4 1 1 3h-2v9l-4 2h-6l-6 2-6 1-1-3 1-2-4-6-2-1v-2l10-3z" fill="#F6FEFE"/>
<path transform="translate(670,351)" d="m0 0h12l8 2v2h-2l2 5 6 8 2 13-1 8-1 6h-1l-2-18-2 2-2-8-3-1-2-3-4-4h-4l-1-2-2-1v-8z" fill="#F6FEFE"/>
<path transform="translate(891,869)" d="m0 0h7l1 4v27l-4-1-4-6-3 1v10l-4-1-1-5 2-2 1-11v-7l3-4h2l-1-4z" fill="#F6FEFE"/>
<path transform="translate(436,759)" d="m0 0h8l-4 2-2 8-7 5-4 2h-6l-4-6-1-6-2-1 3-3h13z" fill="#F6FEFE"/>
<path transform="translate(810,863)" d="m0 0h7v43h-7z" fill="#0000FE"/>
<path transform="translate(694,401)" d="m0 0 2 3v50h-2v5l-2-4-1-5 1-7-2-1-1 9h-1v-22l1-5v-12l2 1z" fill="#F6FEFE"/>
<path transform="translate(647,320)" d="m0 0h12l2 1v2l-12 4-6 4h-5l-8 5-4-1-3-4v-2l-2-1 9-4z" fill="#F7FEFE"/>
<path transform="translate(781,320)" d="m0 0h17l-1 3-13 4-6 4h-9l-7 2v2l-3-1-2-6 2-3 14-4z" fill="#F7FEFE"/>
<path transform="translate(904,280)" d="m0 0 5 1v4l5 1 3 6v5l-6 3-1-1-1 2-7-1-4-8-3-5 1-2 6-1z" fill="#F6FEFE"/>
<path transform="translate(533,875)" d="m0 0 7 1 3 3h5l2-2 1 4v9l-2 2-4-1-12-2-3-3-1-7z" fill="#F6FEFE"/>
<path transform="translate(917,758)" d="m0 0h9v1l13 1 2 1v8l-5 1v3l-7 1-6-4-6-9z" fill="#FCFDFE"/>
<path transform="translate(775,282)" d="m0 0 5 1 8 5v3l-4 1-2 5-5-1v3l-7 1-4-8-2-2 1-4 10-2z" fill="#F6FEFE"/>
<path transform="translate(583,875)" d="m0 0 6 1 3 3 4 1 2-1v14l-3 3-3-1 1-3-1-1-8-1-5-6 1-6z" fill="#F6FEFE"/>
<path transform="translate(697,870)" d="m0 0h9l6 3 2 4v4h-25l1-7 4-3z" fill="#FCFDFE"/>
<path transform="translate(907,322)" d="m0 0 3 1 7 3h33l3 2-3 2-3 1-8-1h-19l-13 1-5 3-2 2-3-1 1-6 5-3-1-2z" fill="#F6FFFF"/>
<path transform="translate(935,720)" d="m0 0h10l4 1 1 7 2 4-3 1-7-3h-6l-1 3h-5l1-8-2-1 3-1v-2z" fill="#F6FEFE"/>
<path transform="translate(1290,872)" d="m0 0 5 1 3 10v5l-4 3-6-1-3-4-1-6 2-6z" fill="#F6FFFF"/>
<path transform="translate(1359,875)" d="m0 0 3 3v5l-3 3 2 3v4l-5-2-7 1-3-5v-7l2-2h10z" fill="#F6FFFF"/>
<path transform="translate(1083,730)" d="m0 0 5 1 7 7 1 18-2 2-2-15-6-2-1-1h-7l-1-2 3-7z" fill="#F6FFFF"/>
<path transform="translate(953,873)" d="m0 0 6 5 2 7-2 4-2 1h-6l-5-6 1-6z" fill="#F6FFFF"/>
<path transform="translate(300,877)" d="m0 0 4 2 1 4v14l-2 9-4 1-2-6v-6l2-3v-6l-2-3 1-5z" fill="#F6FFFF"/>
<path transform="translate(917,876)" d="m0 0 5 1 4 4-1 5-3 5-3 1-5-3-2-3v-5z" fill="#F6FFFF"/>
<path transform="translate(1080,873)" d="m0 0 4 1 3 4 1 7-3 4h-6l-4-5v-5z" fill="#F6FFFF"/>
<path transform="translate(733,876)" d="m0 0 2 2-1 6h-2l1 8v3l-1 8-5-1-1-3 2-5-4-4 1-7 4-1 2-5z" fill="#F6FEFE"/>
<path transform="translate(639,876)" d="m0 0 7 1 2 5-1 6-4 3-5-1-2-3v-7z" fill="#F6FFFF"/>
<path transform="translate(164,868)" d="m0 0h5l1 5-2 9v14l-4-1-2-17v-8z" fill="#F6FFFF"/>
<path transform="translate(926,760)" d="m0 0h13l2 1v8l-5 1v3l-7 1 2-4-1-5z" fill="#F6FEFE"/>
<path transform="translate(788,703)" d="m0 0 13 1 8 5 2 4-1 8-2-2-2-7-6-4-8-1-6 3h-2l1-5z" fill="#F6FFFF"/>
<path transform="translate(1231,876)" d="m0 0 3 3 1 2v8 4l1 1-1 8-2-1 1-5-4-1-1-6v-3l-2-5 2-4z" fill="#F6FEFE"/>
<path transform="translate(444,876)" d="m0 0 5 1 3 4v5l-5 3-5-2-1-1v-7z" fill="#F6FFFF"/>
<path transform="translate(892,305)" d="m0 0 4 1 2 5-6 2-5 1h-12l4-4z" fill="#F8FEFE"/>
<path transform="translate(720,268)" d="m0 0 7 1 8 3-1 3-3-1 2 4h-7v-2l-5-1-2-2z" fill="#F7FEFE"/>
<path transform="translate(818,354)" d="m0 0 7 2 2 2 6 1 1 3-3 6-5-1-2-5-5-5z" fill="#FDFDFE"/>
<path transform="translate(897,875)" d="m0 0h1l1 21-1-2-4-1-1-3v-9l1-5z" fill="#FDFDFE"/>
<path transform="translate(313,788)" d="m0 0 3 1-1 12-7-1-3-3 5-7z" fill="#F7FEFE"/>
<path transform="translate(343,844)" d="m0 0 5 1 1 6-1 3h-8l-1-6 1-3z" fill="#0000FE"/>
<path transform="translate(970,759)" d="m0 0 12 1 7 1 1 4-10-1-6-1-4 2-2-2v-3z" fill="#F6FFFF"/>
<path transform="translate(703,249)" d="m0 0 4 1 5 10 6 5-1 2-7-4v-2h-2l-4-4v-2h-2v-2l-2-1z" fill="#F7FEFE"/>
<path transform="translate(1246,845)" d="m0 0h7l1 1v6l-1 1h-8l-1-1v-6z" fill="#0000FE"/>
<path transform="translate(811,845)" d="m0 0h6l2 2v5l-2 1h-7l-2-2 1-5z" fill="#0000FE"/>
<path transform="translate(757,892)" d="m0 0 3 1v5l-5 2-11-1-1-4h14z" fill="#F7FEFE"/>
<path transform="translate(1249,788)" d="m0 0 3 1-2 10-1 1h-5l-2-4z" fill="#F7FEFE"/>
<path transform="translate(785,771)" d="m0 0h7l5 6h-3l-7-1-4 4-1-6z" fill="#F6FFFF"/>
<path transform="translate(448,789)" d="m0 0 2 2-1 7h-2l1 3h-5l-3-3 4-4 2-4z" fill="#F7FEFE"/>
<path transform="translate(965,882)" d="m0 0h2v9l-3 5-5 1 2-6 2-3z" fill="#F7FEFE"/>
<path transform="translate(823,208)" d="m0 0h3l3 8-1 3-6-1-1-7z" fill="#F6FFFF"/>
<path transform="translate(824,483)" d="m0 0 3 1v19l-2 4-1-9z" fill="#F6FFFF"/>
<path transform="translate(756,307)" d="m0 0h6v2l3 1-1 2h-9l-2-4z" fill="#F7FEFE"/>
<path transform="translate(459,900)" d="m0 0h4l-1 6-2 4-3-1 1-4-2-1 1-3z" fill="#F8FEFE"/>
<path transform="translate(792,763)" d="m0 0h5l1 2-7 1h-12l-4-2z" fill="#F6FEFE"/>
<path transform="translate(1093,883)" d="m0 0h2v8l-3 5-5 1 3-3z" fill="#F7FEFE"/>
<path transform="translate(571,735)" d="m0 0 4 2 1 4h-8v-3z" fill="#F6FFFF"/>
<path transform="translate(1178,901)" d="m0 0h2l-1 8-5-1 1-5z" fill="#F7FEFE"/>
<path transform="translate(387,879)" d="m0 0 4 2-1 5-2 1-3-2 1-5z" fill="#F6FFFF"/>
<path transform="translate(387,893)" d="m0 0 3 1v5l-4 2-2-4z" fill="#F6FFFF"/>
<path transform="translate(653,901)" d="m0 0h3v7l-7-1 2-3h2z" fill="#F6FEFE"/>
<path transform="translate(1024,896)" d="m0 0 12 2-2 2-11-1z" fill="#F8FEFE"/>
<path transform="translate(641,290)" d="m0 0 4 2-1 5-2 1-2-2v-5z" fill="#F6FFFF"/>
<path transform="translate(753,283)" d="m0 0h7l3 4-7-1-3-1z" fill="#F7FEFE"/>
</svg>
