<?xml version="1.0" standalone="no"?>
<!DOCTYPE svg PUBLIC "-//W3C//DTD SVG 20010904//EN"
 "http://www.w3.org/TR/2001/REC-SVG-20010904/DTD/svg10.dtd">
<svg version="1.0" xmlns="http://www.w3.org/2000/svg"
 width="1072.000000pt" height="592.000000pt" viewBox="0 0 1072.000000 592.000000"
 preserveAspectRatio="xMidYMid meet">

<g transform="translate(0.000000,592.000000) scale(0.100000,-0.100000)"
fill="#000000" stroke="none">
<path d="M4127 5503 c-4 -3 -7 -217 -7 -475 0 -503 -1 -497 52 -544 39 -36 86
-55 197 -80 131 -30 206 -59 231 -92 32 -40 25 -59 -27 -85 -81 -40 -165 -54
-478 -78 -375 -28 -448 -115 -158 -186 108 -27 147 -48 166 -92 8 -18 13 -233
17 -716 l5 -690 35 -5 c19 -3 154 -3 300 0 l265 5 0 680 c0 646 -1 682 -19
718 -21 43 -48 59 -144 88 -37 11 -95 32 -129 47 -51 21 -63 31 -63 49 0 12
10 29 23 37 31 20 128 43 212 50 l70 5 -60 -20 c-106 -36 -123 -72 -52 -113
23 -14 80 -32 127 -41 114 -22 145 -37 169 -82 18 -36 19 -70 22 -720 3 -465
7 -685 15 -693 7 -7 106 -9 305 -8 l294 3 3 640 c1 435 -1 657 -9 693 -12 59
-52 113 -96 130 -16 6 -68 23 -116 38 -49 15 -100 36 -113 46 -72 57 21 111
211 122 79 4 93 3 65 -5 -123 -38 -135 -44 -138 -70 -4 -37 41 -63 154 -89
139 -33 151 -38 176 -78 l23 -37 3 -687 c2 -617 4 -687 19 -699 13 -11 74 -13
301 -11 157 2 289 5 294 8 4 3 8 287 8 632 0 652 -4 716 -43 776 -26 38 -57
55 -152 81 -294 81 -208 172 184 195 86 5 194 14 241 20 147 18 280 68 280
104 0 35 -97 80 -230 106 -110 22 -178 50 -209 86 -62 70 -65 92 -71 589 l-5
450 -305 0 -305 0 0 -475 c0 -439 1 -478 18 -511 25 -51 105 -91 237 -119 160
-35 247 -80 238 -126 -8 -44 -135 -90 -273 -100 l-60 -4 50 16 c62 20 129 64
133 87 2 10 -2 24 -8 32 -13 16 -123 52 -255 84 -124 30 -171 56 -196 109 -33
67 -39 141 -47 587 l-7 420 -302 3 -303 2 0 -483 0 -484 23 -34 c37 -55 99
-85 227 -110 198 -38 282 -99 220 -157 -27 -25 -148 -60 -225 -65 -33 -3 -51
-3 -40 0 47 10 131 60 145 86 14 26 14 29 -9 46 -27 20 -118 49 -255 81 -103
24 -130 37 -170 79 -53 55 -57 96 -67 576 -5 241 -11 445 -13 452 -4 10 -68
13 -299 13 -162 0 -297 -3 -300 -7z"/>
<path d="M8896 2188 c-15 -13 -29 -38 -32 -55 -6 -28 -1 -38 29 -68 25 -25 44
-35 66 -35 95 0 144 99 79 160 -31 29 -108 28 -142 -2z"/>
<path d="M6767 2163 c-4 -3 -7 -178 -7 -388 0 -317 2 -385 14 -394 9 -7 40
-11 78 -9 57 3 63 5 66 26 4 27 5 27 67 -3 72 -36 173 -35 241 1 64 34 95 64
130 127 26 47 29 62 29 142 0 78 -4 97 -27 141 -30 56 -84 109 -134 130 -18 8
-68 14 -112 15 -63 1 -87 -3 -121 -21 -24 -12 -46 -18 -49 -15 -4 4 -9 63 -11
131 l-3 124 -77 0 c-43 0 -81 -3 -84 -7z m378 -357 c74 -31 99 -161 44 -240
-30 -44 -56 -56 -124 -56 -89 0 -135 56 -135 165 0 111 106 176 215 131z"/>
<path d="M8450 1782 c0 -288 3 -391 12 -400 13 -13 126 -16 146 -4 9 7 12 93
10 398 l-3 389 -82 3 -83 3 0 -389z"/>
<path d="M1480 2108 c-1 -7 0 -170 0 -362 0 -236 4 -354 12 -363 8 -10 66 -13
257 -13 135 0 252 4 259 9 9 5 12 27 10 72 l-3 64 -182 3 -183 2 -2 298 -3
297 -82 3 c-63 2 -83 0 -83 -10z"/>
<path d="M5097 2114 c-4 -4 -7 -166 -7 -360 0 -403 -4 -384 83 -384 99 0 97
-2 97 111 l0 99 79 0 c90 0 86 3 170 -122 25 -37 55 -71 68 -77 34 -16 163
-14 163 2 0 6 -32 56 -70 109 -39 54 -70 106 -70 116 0 10 13 28 29 40 154
114 135 350 -35 437 l-59 30 -220 3 c-121 2 -224 0 -228 -4z m413 -149 c37
-19 51 -46 53 -98 1 -51 -18 -93 -56 -121 -24 -17 -46 -22 -133 -24 l-104 -4
0 124 c0 69 3 128 7 131 14 14 203 7 233 -8z"/>
<path d="M2214 1945 c-4 -8 -4 -102 -2 -207 3 -177 5 -197 26 -240 59 -120
211 -165 335 -98 l56 30 13 -28 c13 -26 17 -27 83 -27 l70 0 3 280 c2 227 0
282 -11 290 -8 6 -46 8 -88 5 l-74 -5 -5 -170 c-3 -108 -10 -178 -17 -192 -23
-40 -63 -63 -109 -63 -97 0 -107 22 -112 250 -3 117 -8 177 -16 182 -6 4 -42
8 -79 8 -51 0 -69 -4 -73 -15z"/>
<path d="M3187 1950 c-67 -13 -137 -51 -137 -74 0 -22 45 -96 58 -96 4 1 32 9
62 20 30 11 79 19 108 20 46 0 58 -4 83 -29 48 -49 34 -87 -29 -75 -47 9 -191
-14 -233 -38 -50 -28 -69 -57 -76 -117 -17 -150 168 -243 326 -164 39 20 56
24 59 15 10 -30 35 -42 86 -42 28 0 57 5 64 12 15 15 17 311 2 389 -18 92 -67
143 -170 173 -56 17 -137 19 -203 6z m210 -346 c9 -25 -10 -76 -39 -97 -15
-11 -48 -22 -75 -24 -112 -11 -144 103 -35 128 15 4 53 7 85 8 44 1 59 -3 64
-15z"/>
<path d="M3832 1948 c-9 -9 -12 -80 -12 -273 0 -310 -1 -305 90 -305 96 0 90
-11 90 182 0 156 2 172 21 199 39 56 110 74 168 44 16 -8 32 -22 37 -32 4 -10
10 -98 13 -196 5 -143 9 -180 21 -187 25 -16 136 -12 150 5 10 12 12 61 8 206
-5 185 -6 191 -34 246 -24 45 -39 62 -84 87 -47 27 -64 31 -131 31 -68 0 -81
-3 -127 -32 l-52 -32 0 25 c0 28 -4 30 -85 38 -42 5 -64 3 -73 -6z"/>
<path d="M6129 1939 c-179 -64 -244 -274 -138 -441 79 -123 290 -168 435 -92
32 17 60 39 62 48 5 21 -21 61 -52 81 -22 14 -28 14 -75 -5 -67 -26 -146 -26
-188 0 -36 21 -68 64 -59 78 3 6 92 9 207 8 110 0 206 2 211 5 7 4 9 34 6 77
-6 76 -32 134 -85 184 -73 70 -218 96 -324 57z m159 -114 c54 -16 92 -55 92
-94 0 -20 -5 -21 -134 -21 -83 0 -137 4 -141 10 -14 23 52 95 100 109 16 5 30
10 31 10 0 1 23 -6 52 -14z"/>
<path d="M7609 1944 c-19 -24 -7 -367 16 -424 39 -97 117 -149 224 -150 53 0
74 5 118 30 29 17 55 30 57 30 2 0 7 -11 10 -24 5 -21 14 -26 60 -31 34 -5 61
-3 75 4 21 12 21 17 21 291 l0 280 -22 5 c-13 3 -50 2 -83 -2 l-60 -8 -6 -165
c-6 -178 -15 -212 -63 -244 -29 -18 -97 -21 -128 -5 -35 19 -46 67 -53 246 -8
194 -1 180 -97 181 -37 0 -61 -4 -69 -14z"/>
<path d="M8886 1952 c-3 -3 -6 -130 -6 -283 0 -265 1 -279 19 -289 22 -11 93
-13 129 -4 l22 6 -2 287 -3 286 -77 2 c-42 1 -79 -1 -82 -5z"/>
<path d="M1963 925 c-11 -8 -24 -31 -28 -51 -4 -24 -13 -38 -26 -41 -25 -7
-25 -30 1 -38 17 -5 20 -17 22 -108 3 -94 4 -102 23 -102 19 0 20 8 23 103 3
99 3 102 25 102 30 0 62 24 53 38 -4 7 -20 12 -36 12 -32 0 -43 11 -34 34 4
10 18 16 40 16 37 0 58 25 33 41 -22 14 -72 11 -96 -6z"/>
<path d="M4043 933 c-8 -3 -13 -24 -13 -57 l0 -52 -58 4 c-100 7 -145 -31
-144 -125 0 -48 31 -96 71 -112 25 -10 168 -7 178 3 3 3 7 76 8 163 3 172 -2
193 -42 176z m-31 -160 c28 -25 25 -97 -7 -128 -52 -53 -135 -15 -135 62 0 59
22 83 77 83 29 0 53 -6 65 -17z"/>
<path d="M5083 919 c-35 -22 -44 -49 -17 -49 25 0 86 40 81 54 -6 19 -30 17
-64 -5z"/>
<path d="M5487 934 c-4 -4 -7 -30 -7 -59 l0 -51 -75 0 c-68 1 -77 -1 -102 -26
-24 -24 -27 -36 -28 -89 0 -57 2 -62 37 -95 l38 -34 87 3 88 3 0 175 c0 149
-2 174 -15 177 -9 1 -19 0 -23 -4z m-27 -166 c29 -30 23 -103 -10 -130 -30
-25 -79 -23 -107 4 -31 29 -32 99 -3 128 28 28 92 27 120 -2z"/>
<path d="M8477 934 c-4 -4 -7 -80 -7 -169 0 -134 3 -165 15 -175 30 -25 36 3
33 176 -3 143 -5 169 -18 172 -9 1 -19 0 -23 -4z"/>
<path d="M5632 913 c2 -11 14 -19 31 -21 23 -3 28 0 25 15 -2 11 -14 19 -31
21 -23 3 -28 0 -25 -15z"/>
<path d="M9310 916 c-21 -27 1 -37 71 -34 51 2 64 6 67 20 3 13 -3 17 -25 16
-15 0 -44 3 -63 7 -27 5 -39 3 -50 -9z"/>
<path d="M453 904 c-8 -22 14 -34 65 -34 l42 0 1 -102 c0 -139 9 -183 34 -183
19 0 20 9 25 140 l5 140 53 3 c48 3 53 5 50 25 -3 21 -8 22 -136 25 -115 2
-133 0 -139 -14z"/>
<path d="M794 827 c-2 -7 -3 -65 -2 -128 3 -106 4 -114 23 -114 17 0 20 7 22
45 7 116 12 131 51 147 69 29 65 57 -7 47 -31 -4 -51 -2 -55 5 -10 15 -26 14
-32 -2z"/>
<path d="M1037 827 c-36 -7 -47 -13 -45 -26 3 -13 16 -16 70 -16 38 0 72 -5
79 -12 22 -22 2 -40 -50 -45 -67 -7 -101 -30 -101 -69 0 -37 39 -79 73 -79 13
0 52 3 86 7 l63 6 -4 93 c-3 84 -5 96 -28 118 -30 28 -77 36 -143 23z m121
-156 c5 -32 -21 -51 -70 -51 -64 0 -73 51 -12 70 49 15 79 8 82 -19z"/>
<path d="M2659 828 c-1 -7 -3 -59 -4 -115 -3 -109 7 -142 39 -130 13 5 16 21
16 85 0 88 10 109 56 118 52 10 74 -20 74 -104 0 -43 5 -75 14 -88 23 -31 36
-5 44 87 6 76 9 85 33 98 30 17 74 9 84 -16 5 -10 11 -54 14 -98 5 -71 8 -80
26 -80 19 0 20 7 20 97 0 88 -2 99 -24 122 -20 21 -34 26 -73 26 -28 0 -59 -7
-73 -16 -23 -15 -27 -15 -50 0 -27 18 -90 21 -129 7 -18 -7 -28 -6 -36 5 -15
17 -30 18 -31 2z"/>
<path d="M4261 829 c-49 -10 -82 -48 -88 -101 -6 -56 14 -98 60 -127 66 -41
160 -16 187 49 18 44 7 117 -21 146 -29 28 -91 43 -138 33z m99 -59 c29 -29
27 -90 -5 -124 -30 -32 -72 -34 -109 -5 -35 27 -37 98 -4 129 29 27 91 27 118
0z"/>
<path d="M4721 818 c-94 -46 -95 -175 -1 -223 58 -30 160 -7 160 36 0 18 -4
20 -27 14 -16 -4 -49 -9 -76 -12 -47 -5 -47 -5 -63 33 -29 69 12 132 79 119
15 -3 41 -8 57 -11 59 -12 25 38 -38 56 -47 13 -40 14 -91 -12z"/>
<path d="M5647 833 c-4 -3 -7 -60 -7 -125 0 -118 0 -119 23 -116 21 3 22 8 25
106 3 114 -12 164 -41 135z"/>
<path d="M6500 826 c-45 -16 -61 -55 -39 -94 11 -20 31 -31 77 -45 47 -14 62
-23 62 -37 0 -25 -27 -32 -86 -21 -61 12 -80 -1 -44 -31 20 -16 35 -19 82 -16
70 5 98 27 98 74 0 41 -31 64 -96 72 -52 5 -68 27 -38 49 13 10 33 13 67 8 38
-5 49 -3 54 10 3 9 2 20 -3 25 -17 15 -99 19 -134 6z"/>
<path d="M6960 830 c-14 -4 -36 -13 -48 -21 -39 -24 -55 -108 -29 -159 18 -35
74 -70 114 -70 45 0 103 25 103 45 0 13 -11 14 -70 9 -60 -6 -73 -4 -90 11
-41 37 -27 45 75 45 108 0 117 6 94 67 -23 58 -88 91 -149 73z m75 -52 c16 -7
25 -19 25 -35 0 -22 -3 -23 -70 -23 -63 0 -70 2 -70 19 0 41 63 63 115 39z"/>
<path d="M7921 829 c-42 -9 -63 -36 -56 -74 7 -37 25 -52 93 -71 38 -11 52
-20 52 -34 0 -23 -28 -30 -96 -23 -46 5 -54 3 -54 -11 0 -22 40 -36 100 -36
38 0 55 6 79 26 17 14 31 35 31 45 0 30 -42 66 -87 74 -23 3 -49 13 -60 21
-17 14 -17 14 1 29 12 9 41 15 74 15 46 0 53 3 50 18 -4 20 -74 32 -127 21z"/>
<path d="M8826 828 c-3 -7 -7 -45 -10 -85 -7 -98 -16 -113 -71 -113 -24 0 -47
6 -52 13 -4 6 -10 50 -13 97 l-5 85 -30 0 -30 0 3 -65 c4 -87 17 -124 55 -156
27 -23 36 -25 77 -19 25 4 61 8 80 9 l35 1 3 109 c2 71 -1 113 -9 122 -14 17
-28 18 -33 2z"/>
<path d="M9352 830 c-63 -10 -94 -45 -100 -114 -4 -53 -3 -57 30 -90 19 -19
47 -38 61 -42 43 -10 98 5 129 36 23 24 28 37 28 80 0 42 -21 110 -34 110 -2
0 -19 6 -37 13 -21 9 -50 11 -77 7z m87 -66 c47 -59 8 -144 -65 -144 -62 0
-98 91 -58 148 23 34 95 31 123 -4z"/>
<path d="M9947 829 c-42 -11 -57 -28 -57 -64 0 -40 25 -63 86 -79 53 -13 79
-40 54 -56 -8 -5 -46 -7 -84 -3 -56 5 -68 4 -64 -8 13 -41 121 -52 176 -19 34
21 42 53 22 90 -11 21 -60 40 -102 40 -33 0 -46 23 -27 46 10 12 24 14 65 9
56 -7 78 6 53 30 -17 16 -85 24 -122 14z"/>
<path d="M1314 821 c-2 -2 -4 -53 -4 -111 0 -112 10 -140 45 -126 12 4 15 24
15 90 0 76 2 86 22 100 31 22 71 20 93 -4 13 -14 19 -42 23 -95 3 -47 10 -79
19 -86 26 -22 35 5 32 94 -3 68 -8 91 -25 114 -21 27 -24 28 -118 28 -54 0
-99 -2 -102 -4z"/>
<path d="M1670 817 c-55 -28 -24 -108 47 -122 53 -10 73 -22 73 -46 0 -19 -5
-21 -72 -17 -59 2 -73 0 -73 -12 0 -36 110 -53 164 -25 31 16 41 39 34 78 -5
27 -25 38 -101 57 -45 12 -65 36 -41 51 8 5 40 9 72 9 42 0 57 4 57 14 0 8 -7
17 -16 20 -27 10 -118 6 -144 -7z"/>
<path d="M2150 817 c-29 -15 -50 -54 -57 -107 -5 -34 -1 -43 35 -82 36 -38 45
-43 84 -43 24 1 55 4 70 8 38 10 68 64 68 122 0 40 -5 52 -34 81 -30 30 -40
34 -87 34 -30 0 -65 -6 -79 -13z m130 -45 c31 -25 30 -95 -1 -128 -32 -34 -90
-33 -118 2 -46 59 -11 144 59 144 22 0 47 -8 60 -18z"/>
<path d="M2447 823 c-4 -3 -7 -57 -7 -119 0 -84 3 -113 13 -117 31 -12 42 11
46 94 l3 81 39 16 c26 10 39 21 39 34 0 20 -18 23 -68 9 -20 -6 -32 -6 -32 0
0 10 -23 12 -33 2z"/>
<path d="M3198 819 c-10 -5 -18 -17 -18 -25 0 -13 9 -15 48 -9 57 8 102 -7
102 -33 0 -16 -10 -20 -62 -26 -35 -3 -69 -13 -80 -23 -23 -21 -23 -65 1 -94
18 -22 26 -24 102 -21 51 1 86 7 90 14 4 7 5 51 2 98 -7 113 -22 130 -107 130
-34 0 -69 -5 -78 -11z m136 -135 c15 -39 -11 -64 -69 -64 -36 0 -44 4 -48 22
-10 37 14 53 84 57 16 0 29 -5 33 -15z"/>
<path d="M3492 706 c3 -113 4 -121 23 -121 18 0 21 9 26 86 3 47 9 91 13 97 9
15 69 26 95 17 26 -8 33 -31 34 -115 2 -71 14 -97 41 -87 19 8 22 119 5 180
-15 56 -39 66 -147 65 l-93 -2 3 -120z"/>
<path d="M4987 809 c-57 -44 -60 -148 -6 -193 60 -51 135 -48 187 9 27 30 32
42 32 86 0 46 -4 55 -36 85 -32 31 -41 34 -93 34 -44 0 -65 -5 -84 -21z m141
-35 c17 -12 22 -25 22 -58 0 -85 -71 -125 -134 -75 -33 26 -36 84 -5 123 24
31 81 36 117 10z"/>
<path d="M5833 820 c-60 -24 -77 -129 -28 -179 43 -45 79 -57 133 -42 24 6 46
10 49 8 2 -2 -1 -16 -7 -31 -16 -44 -70 -54 -167 -29 -18 4 -23 1 -23 -14 0
-28 40 -43 113 -43 114 0 137 35 137 210 0 98 -3 122 -15 126 -8 4 -21 1 -28
-4 -8 -7 -18 -7 -27 -2 -19 12 -108 12 -137 0z m127 -40 c24 -13 34 -59 20
-96 -14 -37 -26 -44 -77 -44 -52 0 -83 28 -83 77 0 46 30 73 81 73 22 0 49 -4
59 -10z"/>
<path d="M6177 809 c-32 -25 -52 -85 -43 -131 3 -19 20 -48 37 -64 26 -25 38
-29 83 -28 63 0 100 21 123 68 22 47 10 101 -32 143 -29 29 -39 33 -88 33 -40
0 -61 -6 -80 -21z m135 -36 c26 -23 25 -106 -2 -133 -26 -26 -80 -26 -111 -1
-31 25 -34 98 -5 130 24 26 91 29 118 4z"/>
<path d="M7200 716 c0 -90 3 -116 15 -126 28 -23 40 4 40 90 0 51 5 83 13 92
16 16 88 16 104 0 6 -6 14 -49 16 -96 3 -62 8 -86 19 -90 27 -11 33 5 33 83 0
89 10 109 61 117 53 9 65 -9 72 -106 6 -87 15 -107 43 -96 15 6 16 17 11 97
-7 87 -18 126 -41 141 -20 14 -107 8 -136 -8 -26 -16 -29 -16 -51 0 -26 18
-77 21 -127 7 -20 -6 -32 -6 -32 0 0 5 -9 9 -20 9 -19 0 -20 -7 -20 -114z"/>
<path d="M8190 823 c-29 -11 -48 -35 -60 -77 -26 -92 48 -176 144 -163 31 4
50 15 80 47 36 39 38 45 32 86 -7 53 -31 93 -63 105 -26 10 -108 11 -133 2z
m130 -60 c42 -53 1 -143 -65 -143 -64 0 -100 60 -75 125 14 38 26 45 77 45 34
0 46 -5 63 -27z"/>
<path d="M9014 816 c-22 -10 -36 -27 -48 -57 -24 -61 -15 -99 37 -145 73 -65
92 -114 46 -114 -10 0 -19 -4 -19 -9 0 -16 36 -22 65 -11 23 9 26 14 21 38
-12 51 -11 56 27 75 22 12 37 28 37 39 0 19 -25 25 -35 8 -3 -5 -28 -10 -54
-10 -64 0 -83 21 -79 86 3 43 7 51 32 63 25 11 38 12 79 1 64 -16 84 0 36 29
-39 24 -99 27 -145 7z"/>
<path d="M9614 807 c-23 -20 -28 -34 -32 -83 -3 -50 -1 -63 19 -88 25 -32 75
-56 114 -56 35 0 85 27 85 45 0 18 -8 18 -64 4 -36 -9 -49 -8 -75 5 -18 10
-31 24 -31 36 0 17 9 20 93 22 l92 3 -1 39 c-1 31 -9 46 -33 68 -43 38 -126
40 -167 5z m142 -42 c14 -14 22 -30 19 -35 -3 -6 -40 -10 -81 -10 -62 0 -74 3
-74 17 0 54 91 73 136 28z"/>
</g>
</svg>
