<?xml version="1.0" encoding="UTF-8"?>
<!DOCTYPE svg PUBLIC "-//W3C//DTD SVG 1.1//EN" "http://www.w3.org/Graphics/SVG/1.1/DTD/svg11.dtd">
<svg xmlns="http://www.w3.org/2000/svg" version="1.1" width="994px" height="580px" style="shape-rendering:geometricPrecision; text-rendering:geometricPrecision; image-rendering:optimizeQuality; fill-rule:evenodd; clip-rule:evenodd" xmlns:xlink="http://www.w3.org/1999/xlink">
<g><path style="opacity:0.806" fill="#f4f3f5" d="M 272.5,474.5 C 273.306,473.272 274.306,472.272 275.5,471.5C 275.842,470.662 276.508,470.328 277.5,470.5C 279.827,470.753 281.827,470.086 283.5,468.5C 286.378,465.979 288.378,462.979 289.5,459.5C 291.068,457.189 291.902,454.522 292,451.5C 292.17,383.096 292.67,314.763 293.5,246.5C 293.829,232.99 293.496,219.656 292.5,206.5C 292.667,180.165 292.5,153.831 292,127.5C 291.626,125.509 290.793,123.842 289.5,122.5C 284.983,112.179 276.983,106.679 265.5,106C 222.833,105.333 180.167,105.333 137.5,106C 125.062,107.774 116.895,114.608 113,126.5C 112.98,144.381 112.147,162.215 110.5,180C 111.067,184.017 111.733,188.017 112.5,192C 109.957,203.527 109.957,215.027 112.5,226.5C 110.94,231.794 110.274,237.294 110.5,243C 112.408,307.479 113.074,371.979 112.5,436.5C 112.5,437.167 112.5,437.833 112.5,438.5C 112.334,444.176 112.501,449.843 113,455.5C 113.522,458.281 114.689,460.615 116.5,462.5C 118.427,465.767 120.761,468.767 123.5,471.5C 118.575,469.743 115.075,466.41 113,461.5C 108.843,449.79 108.009,437.956 110.5,426C 110.656,327.311 109.989,229.478 108.5,132.5C 111.769,114.067 122.769,104.233 141.5,103C 181.833,102.333 222.167,102.333 262.5,103C 280.868,104.041 291.701,113.541 295,131.5C 295.008,237.505 295.008,343.505 295,449.5C 293.562,463.432 286.062,471.766 272.5,474.5 Z"/></g>
<g><path style="opacity:0.988" fill="#8d97a4" d="M 289.5,122.5 C 289.5,123.5 289.5,124.5 289.5,125.5C 285.227,116.076 277.893,110.576 267.5,109C 222.5,108.333 177.5,108.333 132.5,109C 126.176,110.995 121.343,114.828 118,120.5C 117.378,123.739 116.212,126.739 114.5,129.5C 113.833,231.833 113.167,334.167 112.5,436.5C 113.074,371.979 112.408,307.479 110.5,243C 110.274,237.294 110.94,231.794 112.5,226.5C 109.957,215.027 109.957,203.527 112.5,192C 111.733,188.017 111.067,184.017 110.5,180C 112.147,162.215 112.98,144.381 113,126.5C 116.895,114.608 125.062,107.774 137.5,106C 180.167,105.333 222.833,105.333 265.5,106C 276.983,106.679 284.983,112.179 289.5,122.5 Z"/></g>
<g><path style="opacity:0.988" fill="#0f1012" d="M 289.5,125.5 C 289.5,125.833 289.5,126.167 289.5,126.5C 290.656,233.816 290.823,341.149 290,448.5C 288.655,457.532 284.489,464.865 277.5,470.5C 276.508,470.328 275.842,470.662 275.5,471.5C 269.72,473.23 263.72,473.897 257.5,473.5C 228.833,473.5 200.167,473.5 171.5,473.5C 167.766,473.323 164.099,473.656 160.5,474.5C 154.831,475.281 148.831,475.615 142.5,475.5C 137.813,473.77 132.98,472.103 128,470.5C 124.997,468.326 122.164,465.993 119.5,463.5C 118.537,460.256 117.204,457.256 115.5,454.5C 115.5,454.167 115.5,453.833 115.5,453.5C 114.508,345.522 114.175,237.522 114.5,129.5C 116.212,126.739 117.378,123.739 118,120.5C 121.343,114.828 126.176,110.995 132.5,109C 177.5,108.333 222.5,108.333 267.5,109C 277.893,110.576 285.227,116.076 289.5,125.5 Z"/></g>
<g><path style="opacity:0.996" fill="#f9fafa" d="M 281.5,123.5 C 282.761,127.374 283.428,131.374 283.5,135.5C 229.167,135.5 174.833,135.5 120.5,135.5C 120.5,133.833 120.5,132.167 120.5,130.5C 121.624,123.198 125.624,118.031 132.5,115C 145.439,113.578 158.439,113.078 171.5,113.5C 170.345,118.855 172.012,123.022 176.5,126C 193.5,126.667 210.5,126.667 227.5,126C 232.257,123.261 234.257,119.094 233.5,113.5C 245.171,113.333 256.838,113.5 268.5,114C 274.166,115.521 278.5,118.687 281.5,123.5 Z"/></g>
<g><path style="opacity:0.006" fill="#fdfdfd" d="M 676.5,119.5 C 727.332,118.335 778.332,118.168 829.5,119C 839.306,120.951 843.972,126.785 843.5,136.5C 842.869,134.025 841.869,131.691 840.5,129.5C 837.612,125.052 833.612,122.052 828.5,120.5C 778.003,119.501 727.336,119.168 676.5,119.5 Z"/></g>
<g><path style="opacity:0.215" fill="#eae9ec" d="M 676.5,119.5 C 727.336,119.168 778.003,119.501 828.5,120.5C 677.5,120.333 526.5,120.5 375.5,121C 370.716,123.45 366.883,126.95 364,131.5C 363.833,182.335 363.333,233.002 362.5,283.5C 362.066,233.48 361.733,183.646 361.5,134C 363.449,126.417 368.115,121.417 375.5,119C 388.333,118.833 401.167,118.667 414,118.5C 502.332,119.399 589.832,119.733 676.5,119.5 Z"/></g>
<g><path style="opacity:0.456" fill="#949596" d="M 828.5,120.5 C 833.612,122.052 837.612,125.052 840.5,129.5C 840.5,130.167 840.5,130.833 840.5,131.5C 839.833,131.167 839.167,130.833 838.5,130.5C 836.178,126.681 832.845,124.181 828.5,123C 677.833,122.333 527.167,122.333 376.5,123C 371.667,125.167 368.167,128.667 366,133.5C 365.5,235.833 365.333,338.166 365.5,440.5C 364.833,435.5 364.167,430.5 363.5,425.5C 363.802,422.941 363.468,420.607 362.5,418.5C 362.5,373.5 362.5,328.5 362.5,283.5C 363.333,233.002 363.833,182.335 364,131.5C 366.883,126.95 370.716,123.45 375.5,121C 526.5,120.5 677.5,120.333 828.5,120.5 Z"/></g>
<g><path style="opacity:0.996" fill="#010101" d="M 838.5,130.5 C 838.892,132.179 839.392,133.846 840,135.5C 840.5,237.166 840.667,338.833 840.5,440.5C 682.167,440.5 523.833,440.5 365.5,440.5C 365.333,338.166 365.5,235.833 366,133.5C 368.167,128.667 371.667,125.167 376.5,123C 527.167,122.333 677.833,122.333 828.5,123C 832.845,124.181 836.178,126.681 838.5,130.5 Z"/></g>
<g><path style="opacity:0.992" fill="#737476" d="M 245.5,122.5 C 246.5,122.5 247.5,122.5 248.5,122.5C 248.5,123.5 248.5,124.5 248.5,125.5C 246.396,125.799 244.396,125.466 242.5,124.5C 243.602,123.824 244.602,123.158 245.5,122.5 Z"/></g>
<g><path style="opacity:0.996" fill="#7b7c7d" d="M 250.5,122.5 C 251.946,121.387 253.613,121.22 255.5,122C 256.337,123.011 256.67,124.178 256.5,125.5C 254.801,125.66 253.134,125.494 251.5,125C 252.566,123.841 252.233,123.008 250.5,122.5 Z"/></g>
<g><path style="opacity:0.989" fill="#6f6f70" d="M 259.5,121.5 C 262.5,121.5 265.5,121.5 268.5,121.5C 268.5,122.833 268.5,124.167 268.5,125.5C 265.5,125.5 262.5,125.5 259.5,125.5C 259.5,124.167 259.5,122.833 259.5,121.5 Z"/></g>
<g><path style="opacity:0.996" fill="#030304" d="M 260.5,122.5 C 262.924,122.192 265.257,122.526 267.5,123.5C 266.333,123.833 265.167,124.167 264,124.5C 262.319,124.392 261.152,123.725 260.5,122.5 Z"/></g>
<g><path style="opacity:0.996" fill="#959597" d="M 142.5,122.5 C 143.586,122.62 144.253,123.287 144.5,124.5C 144.167,125.167 143.833,125.833 143.5,126.5C 142.571,125.311 142.238,123.978 142.5,122.5 Z"/></g>
<g><path style="opacity:0.992" fill="#9a9b9d" d="M 156.5,122.5 C 156.56,121.957 156.893,121.624 157.5,121.5C 158.452,123.045 158.785,124.712 158.5,126.5C 154.116,126.826 149.783,126.492 145.5,125.5C 146.641,124.575 146.641,123.741 145.5,123C 147.488,122.82 149.488,122.986 151.5,123.5C 151.389,124.117 151.056,124.617 150.5,125C 152.81,125.497 155.143,125.663 157.5,125.5C 157.737,124.209 157.404,123.209 156.5,122.5 Z"/></g>
<g><path style="opacity:0.996" fill="#505051" d="M 156.5,122.5 C 157.404,123.209 157.737,124.209 157.5,125.5C 155.143,125.663 152.81,125.497 150.5,125C 151.056,124.617 151.389,124.117 151.5,123.5C 153.059,123.35 154.726,123.017 156.5,122.5 Z"/></g>
<g><path style="opacity:1" fill="#484f5b" d="M 281.5,123.5 C 284.035,127.355 285.035,131.688 284.5,136.5C 229.664,136.832 174.997,136.499 120.5,135.5C 174.833,135.5 229.167,135.5 283.5,135.5C 283.428,131.374 282.761,127.374 281.5,123.5 Z"/></g>
<g><path style="opacity:0.996" fill="#0f172a" d="M 120.5,130.5 C 120.5,132.167 120.5,133.833 120.5,135.5C 174.997,136.499 229.664,136.832 284.5,136.5C 284.5,228.833 284.5,321.167 284.5,413.5C 281.833,413.5 279.167,413.5 276.5,413.5C 275.829,410.306 275.495,407.306 275.5,404.5C 276.833,378.833 276.833,353.167 275.5,327.5C 226.736,326.17 178.069,326.17 129.5,327.5C 128.502,352.661 128.169,377.995 128.5,403.5C 128.5,406.833 128.5,410.167 128.5,413.5C 125.833,413.5 123.167,413.5 120.5,413.5C 120.477,318.981 120.477,224.648 120.5,130.5 Z"/></g>
<g><path style="opacity:0.996" fill="#2f3037" d="M 826.5,141.5 C 677.833,141.5 529.167,141.5 380.5,141.5C 380.5,234.167 380.5,326.833 380.5,419.5C 529.167,419.5 677.833,419.5 826.5,419.5C 677.668,420.5 528.668,420.833 379.5,420.5C 379.5,327.167 379.5,233.833 379.5,140.5C 528.668,140.167 677.668,140.5 826.5,141.5 Z"/></g>
<g><path style="opacity:0.996" fill="#0f172a" d="M 826.5,141.5 C 826.5,234.167 826.5,326.833 826.5,419.5C 677.833,419.5 529.167,419.5 380.5,419.5C 380.5,326.833 380.5,234.167 380.5,141.5C 529.167,141.5 677.833,141.5 826.5,141.5 Z"/></g>
<g><path style="opacity:0.964" fill="#bfc4c9" d="M 289.5,122.5 C 290.793,123.842 291.626,125.509 292,127.5C 292.5,153.831 292.667,180.165 292.5,206.5C 291.668,180.67 291.168,154.67 291,128.5C 290.722,127.584 290.222,126.918 289.5,126.5C 289.5,126.167 289.5,125.833 289.5,125.5C 289.5,124.5 289.5,123.5 289.5,122.5 Z"/></g>
<g><path style="opacity:0.721" fill="#464747" d="M 838.5,130.5 C 839.167,130.833 839.833,131.167 840.5,131.5C 841.15,133.435 841.483,135.435 841.5,137.5C 841.833,238.668 841.499,339.668 840.5,440.5C 840.667,338.833 840.5,237.166 840,135.5C 839.392,133.846 838.892,132.179 838.5,130.5 Z"/></g>
<g><path style="opacity:0.024" fill="#cecdce" d="M 840.5,129.5 C 841.869,131.691 842.869,134.025 843.5,136.5C 843.5,157.5 843.5,178.5 843.5,199.5C 843.167,199.5 842.833,199.5 842.5,199.5C 842.831,178.66 842.497,157.993 841.5,137.5C 841.483,135.435 841.15,133.435 840.5,131.5C 840.5,130.833 840.5,130.167 840.5,129.5 Z"/></g>
<g><path style="opacity:1" fill="#445166" d="M 476.5,173.5 C 478.833,173.5 481.167,173.5 483.5,173.5C 483.291,179.261 482.458,179.594 481,174.5C 480.431,178.361 479.598,178.361 478.5,174.5C 477.013,179.657 476.347,179.324 476.5,173.5 Z"/></g>
<g><path style="opacity:1" fill="#424e63" d="M 470.5,173.5 C 472.429,173.231 474.095,173.731 475.5,175C 474.551,175.617 473.718,175.451 473,174.5C 472.342,176.108 472.842,177.275 474.5,178C 471.07,178.638 469.737,177.138 470.5,173.5 Z"/></g>
<g><path style="opacity:0.998" fill="#39455a" d="M 437.5,171.5 C 440.33,171.694 442.996,172.361 445.5,173.5C 445.833,177.5 446.167,177.5 446.5,173.5C 451.167,173.5 455.833,173.5 460.5,173.5C 460.833,177.5 461.167,177.5 461.5,173.5C 463.527,173.338 465.527,173.505 467.5,174C 468.38,175.356 468.714,176.856 468.5,178.5C 464.449,178.077 460.616,178.744 457,180.5C 455.632,179.297 454.132,178.297 452.5,177.5C 447.488,177.923 442.488,178.256 437.5,178.5C 437.5,176.167 437.5,173.833 437.5,171.5 Z"/></g>
<g><path style="opacity:1" fill="#3a465a" d="M 486.5,173.5 C 488.5,173.5 490.5,173.5 492.5,173.5C 492.833,177.5 493.167,177.5 493.5,173.5C 497.182,173.335 500.848,173.501 504.5,174C 503.833,174.333 503.167,174.667 502.5,175C 503.973,175.71 504.64,176.876 504.5,178.5C 498.812,177.48 493.312,177.48 488,178.5C 486.941,178.37 486.108,177.87 485.5,177C 486.337,175.989 486.67,174.822 486.5,173.5 Z"/></g>
<g><path style="opacity:1" fill="#364257" d="M 517.5,172.5 C 521.452,173.196 525.452,173.696 529.5,174C 528.833,174.333 528.167,174.667 527.5,175C 529.804,175.895 532.138,176.729 534.5,177.5C 527.925,178.338 521.425,178.671 515,178.5C 512.843,177.615 512.01,175.948 512.5,173.5C 514.415,173.784 516.081,173.451 517.5,172.5 Z"/></g>
<g><path style="opacity:0.996" fill="#434f63" d="M 129.5,178.5 C 131.527,178.338 133.527,178.505 135.5,179C 136.022,179.561 136.355,180.228 136.5,181C 136.339,182.956 136.006,184.956 135.5,187C 133.527,187.495 131.527,187.662 129.5,187.5C 129.5,184.5 129.5,181.5 129.5,178.5 Z"/></g>
<g><path style="opacity:0.999" fill="#4c5a6e" d="M 158.5,180.5 C 160.036,182.025 161.036,184.025 161.5,186.5C 162.466,184.604 162.799,182.604 162.5,180.5C 164.124,180.36 165.29,181.027 166,182.5C 168.574,179.741 170.74,180.074 172.5,183.5C 172.167,183.833 171.833,184.167 171.5,184.5C 170.476,183.147 169.143,182.48 167.5,182.5C 167.5,183.833 167.5,185.167 167.5,186.5C 168.873,186.343 170.207,186.51 171.5,187C 170.667,187.167 169.833,187.333 169,187.5C 165.973,187.225 162.806,187.058 159.5,187C 158.577,184.959 158.244,182.792 158.5,180.5 Z"/></g>
<g><path style="opacity:1" fill="#445165" d="M 242.5,178.5 C 244.121,178.787 245.121,179.787 245.5,181.5C 244.233,183.371 244.233,185.204 245.5,187C 244.552,187.483 243.552,187.649 242.5,187.5C 242.547,181.147 241.881,180.98 240.5,187C 237.356,186.905 234.356,187.072 231.5,187.5C 231.093,180.951 230.093,180.951 228.5,187.5C 227.526,185.257 227.192,182.924 227.5,180.5C 230.144,180.16 232.477,180.827 234.5,182.5C 236.249,180.469 238.249,180.135 240.5,181.5C 241.919,180.995 242.585,179.995 242.5,178.5 Z"/></g>
<g><path style="opacity:0.996" fill="#435064" d="M 137.5,180.5 C 139.036,182.025 140.036,184.025 140.5,186.5C 141.167,184.5 141.833,182.5 142.5,180.5C 144.11,181.552 145.777,181.552 147.5,180.5C 149.029,180.529 150.196,181.196 151,182.5C 152.789,180.771 154.956,180.104 157.5,180.5C 157.82,183.898 157.487,187.232 156.5,190.5C 155.614,189.675 155.281,188.675 155.5,187.5C 149.925,187.284 144.258,187.117 138.5,187C 137.577,184.959 137.244,182.792 137.5,180.5 Z"/></g>
<g><path style="opacity:0.996" fill="#4f5c71" d="M 183.5,180.5 C 186.672,180.928 189.672,181.095 192.5,181C 193.769,183.139 193.769,185.305 192.5,187.5C 191.167,180.833 189.833,180.833 188.5,187.5C 187.167,180.833 185.833,180.833 184.5,187.5C 183.526,185.257 183.192,182.924 183.5,180.5 Z"/></g>
<g><path style="opacity:0.996" fill="#4b586c" d="M 198.5,180.5 C 202.971,180.672 203.304,181.506 199.5,183C 202.646,183.11 203.646,184.443 202.5,187C 200.741,187.798 199.074,187.631 197.5,186.5C 197.465,184.557 197.798,182.557 198.5,180.5 Z"/></g>
<g><path style="opacity:1" fill="#4a576b" d="M 177.5,180.5 C 183.225,181.565 183.558,183.232 178.5,185.5C 179.376,186.251 180.376,186.751 181.5,187C 178.402,188.067 176.402,187.067 175.5,184C 175.862,182.566 176.528,181.399 177.5,180.5 Z"/></g>
<g><path style="opacity:0.996" fill="#505e72" d="M 219.5,180.5 C 223.847,180.942 224.18,181.775 220.5,183C 222.002,183.583 223.335,184.416 224.5,185.5C 222.878,187.623 220.878,187.956 218.5,186.5C 219.582,186.251 220.915,186.085 222.5,186C 219.095,185.247 218.095,183.414 219.5,180.5 Z"/></g>
<g><path style="opacity:0.996" fill="#4e5c70" d="M 204.5,180.5 C 206.036,182.025 207.036,184.025 207.5,186.5C 208.167,184.5 208.833,182.5 209.5,180.5C 210.048,184.278 211.715,185.112 214.5,183C 210.856,181.601 211.19,180.934 215.5,181C 216.423,183.041 216.756,185.208 216.5,187.5C 212.5,187.5 208.5,187.5 204.5,187.5C 204.5,185.167 204.5,182.833 204.5,180.5 Z"/></g>
<g><path style="opacity:1" fill="#404c60" d="M 247.5,180.5 C 250.863,181.474 254.197,181.64 257.5,181C 257.833,181.333 258.167,181.667 258.5,182C 257.5,182.333 256.5,182.667 255.5,183C 257.842,184.171 260.176,185.338 262.5,186.5C 257.448,187.249 252.115,187.583 246.5,187.5C 246.22,184.612 247.553,183.112 250.5,183C 249.167,182.667 247.833,182.333 246.5,182C 247.056,181.617 247.389,181.117 247.5,180.5 Z"/></g>
<g><path style="opacity:0.998" fill="#334155" d="M 437.5,194.5 C 472.5,194.5 507.5,194.5 542.5,194.5C 542.5,219.5 542.5,244.5 542.5,269.5C 507.498,269.667 472.498,269.5 437.5,269C 436.171,244.167 436.171,219.333 437.5,194.5 Z"/></g>
<g><path style="opacity:1" fill="#1d283a" d="M 655.5,195.5 C 655.667,208.504 655.5,221.504 655,234.5C 654.612,233.572 653.945,232.905 653,232.5C 619.714,232.774 586.047,233.107 552,233.5C 550.521,220.993 550.021,208.326 550.5,195.5C 585.598,194.171 620.598,194.171 655.5,195.5 Z"/></g>
<g><path style="opacity:0.996" fill="#1e293b" d="M 768.5,195.5 C 768.814,208.217 768.481,220.883 767.5,233.5C 732.626,234.773 697.959,234.773 663.5,233.5C 663.178,220.587 663.511,207.754 664.5,195C 699.336,194.169 734.002,194.336 768.5,195.5 Z"/></g>
<g><path style="opacity:0.996" fill="#6f7a8b" d="M 443.5,202.5 C 449.653,202.648 455.986,202.648 462.5,202.5C 462.5,203.5 462.5,204.5 462.5,205.5C 456.824,205.666 451.157,205.499 445.5,205C 444.244,204.583 443.577,203.75 443.5,202.5 Z"/></g>
<g><path style="opacity:0.999" fill="#556173" d="M 679.5,202.5 C 683.833,202.5 688.167,202.5 692.5,202.5C 692.5,203.5 692.5,204.5 692.5,205.5C 688.167,205.5 683.833,205.5 679.5,205.5C 679.5,204.5 679.5,203.5 679.5,202.5 Z"/></g>
<g><path style="opacity:0.996" fill="#707c8d" d="M 463.5,202.5 C 466.518,202.335 469.518,202.502 472.5,203C 472.957,203.414 473.291,203.914 473.5,204.5C 470.232,205.487 466.898,205.82 463.5,205.5C 463.5,204.5 463.5,203.5 463.5,202.5 Z"/></g>
<g><path style="opacity:0.996" fill="#334155" d="M 128.5,211.5 C 177.5,211.5 226.5,211.5 275.5,211.5C 275.667,246.168 275.5,280.835 275,315.5C 250.738,316.164 226.405,316.498 202,316.5C 177.595,316.498 153.262,316.164 129,315.5C 128.5,280.835 128.333,246.168 128.5,211.5 Z"/></g>
<g><path style="opacity:0.998" fill="#606d7f" d="M 137.5,221.5 C 139.017,221.511 140.184,222.177 141,223.5C 141.804,222.196 142.971,221.529 144.5,221.5C 151.022,221.963 157.688,222.463 164.5,223C 163.833,224.333 162.833,225.333 161.5,226C 155.784,225.896 150.117,226.063 144.5,226.5C 141.741,226.458 139.075,225.958 136.5,225C 137.337,223.989 137.67,222.822 137.5,221.5 Z"/></g>
<g><path style="opacity:0.996" fill="#768191" d="M 168.5,221.5 C 171.845,221.821 175.178,222.155 178.5,222.5C 178.5,223.833 178.5,225.167 178.5,226.5C 174.9,226.206 171.4,225.54 168,224.5C 167.667,224.833 167.333,225.167 167,225.5C 166.516,223.807 167.016,222.473 168.5,221.5 Z"/></g>
<g><path style="opacity:0.999" fill="#192333" d="M 550.5,195.5 C 550.021,208.326 550.521,220.993 552,233.5C 586.047,233.107 619.714,232.774 653,232.5C 653.945,232.905 654.612,233.572 655,234.5C 655.5,221.504 655.667,208.504 655.5,195.5C 656.497,214.326 656.83,233.326 656.5,252.5C 655.698,251.048 655.198,249.382 655,247.5C 620.143,248.262 585.476,248.262 551,247.5C 550.536,248.094 550.369,248.761 550.5,249.5C 549.167,231.5 549.167,213.5 550.5,195.5 Z"/></g>
<g><path style="opacity:1" fill="#425064" d="M 555.5,212.5 C 558.833,212.5 562.167,212.5 565.5,212.5C 565.5,213.5 565.5,214.5 565.5,215.5C 562.167,215.5 558.833,215.5 555.5,215.5C 555.5,214.5 555.5,213.5 555.5,212.5 Z"/></g>
<g><path style="opacity:0.996" fill="#566274" d="M 582.5,202.5 C 584.604,202.201 586.604,202.534 588.5,203.5C 586.977,205.283 584.977,205.949 582.5,205.5C 582.5,204.5 582.5,203.5 582.5,202.5 Z"/></g>
<g><path style="opacity:0.996" fill="#5d697b" d="M 576.5,202.5 C 578.167,202.5 579.833,202.5 581.5,202.5C 581.5,203.5 581.5,204.5 581.5,205.5C 579.833,205.5 578.167,205.5 576.5,205.5C 576.5,204.5 576.5,203.5 576.5,202.5 Z"/></g>
<g><path style="opacity:0.996" fill="#586476" d="M 590.5,202.5 C 594.833,202.5 599.167,202.5 603.5,202.5C 603.5,203.5 603.5,204.5 603.5,205.5C 599.167,205.5 594.833,205.5 590.5,205.5C 590.5,204.5 590.5,203.5 590.5,202.5 Z"/></g>
<g><path style="opacity:0.996" fill="#566274" d="M 555.5,202.5 C 561.74,202.905 568.073,202.905 574.5,202.5C 574.5,203.5 574.5,204.5 574.5,205.5C 568.167,205.5 561.833,205.5 555.5,205.5C 555.5,204.5 555.5,203.5 555.5,202.5 Z"/></g>
<g><path style="opacity:0.996" fill="#515e72" d="M 137.5,235.5 C 142.848,236.794 148.181,237.127 153.5,236.5C 153.5,237.833 153.5,239.167 153.5,240.5C 150.991,239.325 148.491,239.325 146,240.5C 144.674,240.245 143.674,239.578 143,238.5C 141.582,240.363 139.749,240.863 137.5,240C 136.272,238.51 136.272,237.01 137.5,235.5 Z"/></g>
<g><path style="opacity:0.996" fill="#505e72" d="M 255.5,235.5 C 258.43,236.299 261.43,236.632 264.5,236.5C 264.5,237.833 264.5,239.167 264.5,240.5C 261.15,240.665 257.817,240.498 254.5,240C 253.318,238.322 252.152,238.488 251,240.5C 249.192,239.31 247.359,239.31 245.5,240.5C 244.353,240.182 243.519,239.516 243,238.5C 240.894,240.291 238.394,240.958 235.5,240.5C 235.5,239.167 235.5,237.833 235.5,236.5C 239.547,236.305 243.547,236.638 247.5,237.5C 250.349,237.036 253.016,236.369 255.5,235.5 Z"/></g>
<g><path style="opacity:1" fill="#182130" d="M 768.5,195.5 C 769.497,212.325 769.83,229.325 769.5,246.5C 756.167,248.144 742.667,249.144 729,249.5C 707.167,248.828 685.333,248.161 663.5,247.5C 663.5,242.833 663.5,238.167 663.5,233.5C 697.959,234.773 732.626,234.773 767.5,233.5C 768.481,220.883 768.814,208.217 768.5,195.5 Z"/></g>
<g><path style="opacity:1" fill="#4e5b6f" d="M 190.5,245.5 C 191.807,246.153 193.14,246.82 194.5,247.5C 200.86,247.458 207.193,247.125 213.5,246.5C 217.507,249.416 217.173,250.75 212.5,250.5C 210.68,250.351 209.18,249.684 208,248.5C 194.747,250.471 181.247,251.138 167.5,250.5C 167.238,249.022 167.571,247.689 168.5,246.5C 173.811,246.443 179.144,246.776 184.5,247.5C 186.657,246.95 188.657,246.283 190.5,245.5 Z"/></g>
<g><path style="opacity:0.943" fill="#7f8b9a" d="M 289.5,126.5 C 290.222,126.918 290.722,127.584 291,128.5C 291.168,154.67 291.668,180.67 292.5,206.5C 293.496,219.656 293.829,232.99 293.5,246.5C 291.669,314.159 290.836,382.159 291,450.5C 290.498,453.513 289.998,456.513 289.5,459.5C 288.378,462.979 286.378,465.979 283.5,468.5C 281.827,470.086 279.827,470.753 277.5,470.5C 284.489,464.865 288.655,457.532 290,448.5C 290.823,341.149 290.656,233.816 289.5,126.5 Z"/></g>
<g><path style="opacity:1" fill="#121824" d="M 656.5,252.5 C 656.612,257.853 656.278,263.187 655.5,268.5C 655.664,265.813 655.497,263.146 655,260.5C 654.311,261.357 653.478,262.023 652.5,262.5C 649.971,261.401 647.471,260.401 645,259.5C 644.667,260.167 644.333,260.833 644,261.5C 642.221,260.521 640.555,260.854 639,262.5C 637.846,260.043 636.512,260.043 635,262.5C 634.333,259.833 633.667,259.833 633,262.5C 632.667,261.833 632.333,261.167 632,260.5C 605.041,260.518 577.875,260.518 550.5,260.5C 550.305,257.044 550.305,253.378 550.5,249.5C 550.369,248.761 550.536,248.094 551,247.5C 585.476,248.262 620.143,248.262 655,247.5C 655.198,249.382 655.698,251.048 656.5,252.5 Z"/></g>
<g><path style="opacity:0.999" fill="#121824" d="M 769.5,246.5 C 769.825,254.019 769.492,261.352 768.5,268.5C 768.263,265.788 768.263,263.288 768.5,261C 765.058,260.816 761.225,260.983 757,261.5C 754.185,258.806 751.685,259.139 749.5,262.5C 747.684,259.936 745.851,259.936 744,262.5C 743.196,261.196 742.029,260.529 740.5,260.5C 738.871,261.423 737.371,261.757 736,261.5C 735.692,260.692 735.192,260.025 734.5,259.5C 733.167,260.167 731.833,260.833 730.5,261.5C 729.28,260.289 728.113,260.289 727,261.5C 726.692,260.692 726.192,260.025 725.5,259.5C 725.167,260.167 724.833,260.833 724.5,261.5C 723.167,261.167 721.833,260.833 720.5,260.5C 720.167,261.167 719.833,261.833 719.5,262.5C 718.184,259.972 717.017,259.972 716,262.5C 715.676,260.431 714.842,260.098 713.5,261.5C 712.252,260.96 711.085,260.293 710,259.5C 709.667,260.167 709.333,260.833 709,261.5C 707.089,261.255 705.089,261.255 703,261.5C 699.629,258.983 696.295,258.983 693,261.5C 692.374,259.009 691.541,259.009 690.5,261.5C 682.261,260.566 674.261,260.233 666.5,260.5C 665.524,261.195 664.524,261.862 663.5,262.5C 663.5,257.5 663.5,252.5 663.5,247.5C 685.333,248.161 707.167,248.828 729,249.5C 742.667,249.144 756.167,248.144 769.5,246.5 Z"/></g>
<g><path style="opacity:1" fill="#0d121b" d="M 655.5,268.5 C 620.669,269.664 585.669,269.831 550.5,269C 549.183,266.063 549.183,263.23 550.5,260.5C 577.875,260.518 605.041,260.518 632,260.5C 632.333,261.167 632.667,261.833 633,262.5C 633.667,259.833 634.333,259.833 635,262.5C 636.512,260.043 637.846,260.043 639,262.5C 640.555,260.854 642.221,260.521 644,261.5C 644.333,260.833 644.667,260.167 645,259.5C 647.471,260.401 649.971,261.401 652.5,262.5C 653.478,262.023 654.311,261.357 655,260.5C 655.497,263.146 655.664,265.813 655.5,268.5 Z"/></g>
<g><path style="opacity:0.999" fill="#0d121b" d="M 768.5,268.5 C 733.671,269.498 698.671,269.832 663.5,269.5C 663.5,267.167 663.5,264.833 663.5,262.5C 664.524,261.862 665.524,261.195 666.5,260.5C 674.261,260.233 682.261,260.566 690.5,261.5C 691.541,259.009 692.374,259.009 693,261.5C 696.295,258.983 699.629,258.983 703,261.5C 705.089,261.255 707.089,261.255 709,261.5C 709.333,260.833 709.667,260.167 710,259.5C 711.085,260.293 712.252,260.96 713.5,261.5C 714.842,260.098 715.676,260.431 716,262.5C 717.017,259.972 718.184,259.972 719.5,262.5C 719.833,261.833 720.167,261.167 720.5,260.5C 721.833,260.833 723.167,261.167 724.5,261.5C 724.833,260.833 725.167,260.167 725.5,259.5C 726.192,260.025 726.692,260.692 727,261.5C 728.113,260.289 729.28,260.289 730.5,261.5C 731.833,260.833 733.167,260.167 734.5,259.5C 735.192,260.025 735.692,260.692 736,261.5C 737.371,261.757 738.871,261.423 740.5,260.5C 742.029,260.529 743.196,261.196 744,262.5C 745.851,259.936 747.684,259.936 749.5,262.5C 751.685,259.139 754.185,258.806 757,261.5C 761.225,260.983 765.058,260.816 768.5,261C 768.263,263.288 768.263,265.788 768.5,268.5 Z"/></g>
<g><path style="opacity:0.807" fill="#596678" d="M 114.5,129.5 C 114.175,237.522 114.508,345.522 115.5,453.5C 114.778,453.082 114.278,452.416 114,451.5C 113.825,446.981 113.325,442.647 112.5,438.5C 112.5,437.833 112.5,437.167 112.5,436.5C 113.167,334.167 113.833,231.833 114.5,129.5 Z"/></g>
<g><path style="opacity:0.996" fill="#1e293b" d="M 275.5,327.5 C 275.5,346.167 275.5,364.833 275.5,383.5C 226.933,383.657 178.433,383.99 130,384.5C 129.5,365.503 129.333,346.503 129.5,327.5C 178.069,326.17 226.736,326.17 275.5,327.5 Z"/></g>
<g><path style="opacity:0.518" fill="#bcc1c7" d="M 293.5,246.5 C 292.67,314.763 292.17,383.096 292,451.5C 291.902,454.522 291.068,457.189 289.5,459.5C 289.998,456.513 290.498,453.513 291,450.5C 290.836,382.159 291.669,314.159 293.5,246.5 Z"/></g>
<g><path style="opacity:1" fill="#182130" d="M 129.5,327.5 C 129.333,346.503 129.5,365.503 130,384.5C 178.433,383.99 226.933,383.657 275.5,383.5C 275.5,364.833 275.5,346.167 275.5,327.5C 276.833,353.167 276.833,378.833 275.5,404.5C 274.48,403.046 273.313,402.713 272,403.5C 271.667,402.833 271.333,402.167 271,401.5C 269.75,402.573 268.416,402.573 267,401.5C 265.715,401.95 264.548,402.617 263.5,403.5C 262.808,402.975 262.308,402.308 262,401.5C 261,404.167 260,404.167 259,401.5C 258.692,402.308 258.192,402.975 257.5,403.5C 248.784,402.933 239.95,402.933 231,403.5C 230.055,403.095 229.388,402.428 229,401.5C 228.692,402.308 228.192,402.975 227.5,403.5C 226.28,402.289 225.113,402.289 224,403.5C 223.374,401.009 222.541,401.009 221.5,403.5C 219.297,403.413 217.13,403.413 215,403.5C 214.333,400.833 213.667,400.833 213,403.5C 212.309,401.109 211.309,401.109 210,403.5C 208.488,401.043 207.154,401.043 206,403.5C 204.667,402.167 203.333,402.167 202,403.5C 201.333,400.833 200.667,400.833 200,403.5C 198.163,403.335 196.163,402.668 194,401.5C 192.209,403.513 190.875,403.513 190,401.5C 188.667,402.167 187.333,402.833 186,403.5C 185.333,400.833 184.667,400.833 184,403.5C 178.787,402.58 174.121,402.58 170,403.5C 168.915,402.707 167.748,402.04 166.5,401.5C 165.28,402.711 164.113,402.711 163,401.5C 160.827,403.901 158.494,403.901 156,401.5C 155,404.167 154,404.167 153,401.5C 151.846,403.957 150.512,403.957 149,401.5C 148.667,402.167 148.333,402.833 148,403.5C 141.226,402.385 134.726,402.385 128.5,403.5C 128.169,377.995 128.502,352.661 129.5,327.5 Z"/></g>
<g><path style="opacity:0.996" fill="#5a6677" d="M 157.5,336.5 C 163.197,336.917 168.863,337.251 174.5,337.5C 174.762,338.978 174.429,340.311 173.5,341.5C 167.584,341.72 161.417,341.053 155,339.5C 154.667,339.833 154.333,340.167 154,340.5C 153.517,339.552 153.351,338.552 153.5,337.5C 155.099,337.768 156.432,337.434 157.5,336.5 Z"/></g>
<g><path style="opacity:0.996" fill="#525e6f" d="M 136.5,336.5 C 138.764,337.219 141.097,337.552 143.5,337.5C 143.5,338.833 143.5,340.167 143.5,341.5C 141.167,341.5 138.833,341.5 136.5,341.5C 136.5,339.833 136.5,338.167 136.5,336.5 Z"/></g>
<g><path style="opacity:0.999" fill="#161d29" d="M 275.5,404.5 C 275.495,407.306 275.829,410.306 276.5,413.5C 279.167,413.5 281.833,413.5 284.5,413.5C 284.5,413.833 284.5,414.167 284.5,414.5C 229.833,414.5 175.167,414.5 120.5,414.5C 120.5,414.167 120.5,413.833 120.5,413.5C 123.167,413.5 125.833,413.5 128.5,413.5C 128.5,410.167 128.5,406.833 128.5,403.5C 134.726,402.385 141.226,402.385 148,403.5C 148.333,402.833 148.667,402.167 149,401.5C 150.512,403.957 151.846,403.957 153,401.5C 154,404.167 155,404.167 156,401.5C 158.494,403.901 160.827,403.901 163,401.5C 164.113,402.711 165.28,402.711 166.5,401.5C 167.748,402.04 168.915,402.707 170,403.5C 174.121,402.58 178.787,402.58 184,403.5C 184.667,400.833 185.333,400.833 186,403.5C 187.333,402.833 188.667,402.167 190,401.5C 190.875,403.513 192.209,403.513 194,401.5C 196.163,402.668 198.163,403.335 200,403.5C 200.667,400.833 201.333,400.833 202,403.5C 203.333,402.167 204.667,402.167 206,403.5C 207.154,401.043 208.488,401.043 210,403.5C 211.309,401.109 212.309,401.109 213,403.5C 213.667,400.833 214.333,400.833 215,403.5C 217.13,403.413 219.297,403.413 221.5,403.5C 222.541,401.009 223.374,401.009 224,403.5C 225.113,402.289 226.28,402.289 227.5,403.5C 228.192,402.975 228.692,402.308 229,401.5C 229.388,402.428 230.055,403.095 231,403.5C 239.95,402.933 248.784,402.933 257.5,403.5C 258.192,402.975 258.692,402.308 259,401.5C 260,404.167 261,404.167 262,401.5C 262.308,402.308 262.808,402.975 263.5,403.5C 264.548,402.617 265.715,401.95 267,401.5C 268.416,402.573 269.75,402.573 271,401.5C 271.333,402.167 271.667,402.833 272,403.5C 273.313,402.713 274.48,403.046 275.5,404.5 Z"/></g>
<g><path style="opacity:0.996" fill="#f4f4f4" d="M 120.5,414.5 C 175.167,414.5 229.833,414.5 284.5,414.5C 284.667,426.505 284.5,438.505 284,450.5C 282.617,459.549 277.451,465.049 268.5,467C 223.833,467.667 179.167,467.667 134.5,467C 126.671,464.175 122.171,458.675 121,450.5C 120.5,438.505 120.333,426.505 120.5,414.5 Z"/></g>
<g><path style="opacity:0.996" fill="#e5e5e6" d="M 130.5,419.5 C 178.5,419.5 226.5,419.5 274.5,419.5C 274.807,425.093 274.473,430.593 273.5,436C 225.833,436.667 178.167,436.667 130.5,436C 129.189,430.5 129.189,425 130.5,419.5 Z"/></g>
<g><path style="opacity:0.996" fill="#919193" d="M 264.5,423.5 C 266.048,423.821 266.715,424.821 266.5,426.5C 265.167,426.5 263.833,426.5 262.5,426.5C 262.794,430.708 264.46,431.375 267.5,428.5C 268.521,429.002 268.688,429.668 268,430.5C 266,431.833 264,431.833 262,430.5C 261.833,429.667 261.667,428.833 261.5,428C 262.008,426.107 263.008,424.607 264.5,423.5 Z"/></g>
<g><path style="opacity:0.992" fill="#9da5b0" d="M 137.5,425.5 C 138.859,426.007 139.859,427.007 140.5,428.5C 142.297,425.904 143.631,426.237 144.5,429.5C 142.516,430.706 140.516,430.706 138.5,429.5C 137.522,429.977 136.689,430.643 136,431.5C 135.591,429.305 136.091,427.305 137.5,425.5 Z"/></g>
<g><path style="opacity:0.996" fill="#48494a" d="M 154.5,425.5 C 155.496,425.414 156.329,425.748 157,426.5C 157.494,428.134 157.66,429.801 157.5,431.5C 156.167,431.5 154.833,431.5 153.5,431.5C 153.325,429.379 153.659,427.379 154.5,425.5 Z"/></g>
<g><path style="opacity:0.992" fill="#abb1b9" d="M 163.5,426.5 C 169.654,428.135 175.987,428.468 182.5,427.5C 182.67,428.822 182.337,429.989 181.5,431C 177.738,431.927 174.238,431.427 171,429.5C 167.559,430.382 164.059,430.716 160.5,430.5C 160.5,429.5 160.5,428.5 160.5,427.5C 161.791,427.737 162.791,427.404 163.5,426.5 Z"/></g>
<g><path style="opacity:0.996" fill="#aab0b8" d="M 183.5,427.5 C 188.833,428.833 194.167,428.833 199.5,427.5C 199.5,428.5 199.5,429.5 199.5,430.5C 197.549,430.773 196.049,430.107 195,428.5C 194.323,430.689 193.156,431.022 191.5,429.5C 189.781,432.048 188.448,431.715 187.5,428.5C 185.099,431.413 183.766,431.079 183.5,427.5 Z"/></g>
<g><path style="opacity:0.994" fill="#a4aab4" d="M 244.5,427.5 C 247.5,427.5 250.5,427.5 253.5,427.5C 253.778,429.346 253.111,430.68 251.5,431.5C 248.811,431.918 246.144,431.418 243.5,430C 244.252,429.329 244.586,428.496 244.5,427.5 Z"/></g>
<g><path style="opacity:0.992" fill="#a6adb6" d="M 200.5,427.5 C 213.577,427.635 226.577,427.635 239.5,427.5C 239.5,428.5 239.5,429.5 239.5,430.5C 234.303,429.867 229.47,429.867 225,430.5C 223.674,430.245 222.674,429.578 222,428.5C 220.647,429.704 218.981,430.371 217,430.5C 215.019,430.371 213.353,429.704 212,428.5C 211.676,430.569 210.842,430.902 209.5,429.5C 206.807,431.27 203.807,431.937 200.5,431.5C 200.5,430.167 200.5,428.833 200.5,427.5 Z"/></g>
<g><path style="opacity:0.312" fill="#f2f2f3" d="M 362.5,418.5 C 363.468,420.607 363.802,422.941 363.5,425.5C 363.5,430.833 363.5,436.167 363.5,441.5C 345.167,441.5 326.833,441.5 308.5,441.5C 308.5,445.167 308.5,448.833 308.5,452.5C 307.567,449.358 306.901,446.024 306.5,442.5C 306.709,441.006 307.376,439.839 308.5,439C 312.706,438.739 316.873,438.239 321,437.5C 334.478,438.609 347.978,438.609 361.5,437.5C 361.767,431.162 362.1,424.829 362.5,418.5 Z"/></g>
<g><path style="opacity:0.903" fill="#f4f4f5" d="M 842.5,199.5 C 842.833,199.5 843.167,199.5 843.5,199.5C 843.333,278.167 843.5,356.834 844,435.5C 844.374,436.416 844.874,437.25 845.5,438C 857.674,438.599 869.841,438.432 882,437.5C 887.934,437.452 893.767,438.118 899.5,439.5C 900.124,444.615 899.29,449.615 897,454.5C 893.467,455.846 889.967,457.346 886.5,459C 884.866,459.494 883.199,459.66 881.5,459.5C 882.5,458.833 883.5,458.167 884.5,457.5C 888.215,456.042 892.049,454.708 896,453.5C 897.354,449.637 897.854,445.637 897.5,441.5C 879.167,441.5 860.833,441.5 842.5,441.5C 842.5,360.833 842.5,280.167 842.5,199.5 Z"/></g>
<g><path style="opacity:0.996" fill="#959595" d="M 841.5,137.5 C 842.497,157.993 842.831,178.66 842.5,199.5C 842.5,280.167 842.5,360.833 842.5,441.5C 860.833,441.5 879.167,441.5 897.5,441.5C 897.854,445.637 897.354,449.637 896,453.5C 892.049,454.708 888.215,456.042 884.5,457.5C 791.002,456.167 697.169,455.5 603,455.5C 509.167,455.833 415.333,456.167 321.5,456.5C 321.863,457.183 322.196,457.85 322.5,458.5C 321.833,458.5 321.167,458.5 320.5,458.5C 320.5,457.5 320.5,456.5 320.5,455.5C 316.586,455.889 312.92,455.222 309.5,453.5C 308.833,453.5 308.5,453.167 308.5,452.5C 308.5,448.833 308.5,445.167 308.5,441.5C 326.833,441.5 345.167,441.5 363.5,441.5C 363.5,436.167 363.5,430.833 363.5,425.5C 364.167,430.5 364.833,435.5 365.5,440.5C 431.665,441.499 497.998,441.832 564.5,441.5C 564.082,445.251 565.749,447.418 569.5,448C 592.5,448.667 615.5,448.667 638.5,448C 640.919,446.491 641.919,444.325 641.5,441.5C 708.002,441.832 774.335,441.499 840.5,440.5C 841.499,339.668 841.833,238.668 841.5,137.5 Z"/></g>
<g><path style="opacity:0.996" fill="#666566" d="M 365.5,440.5 C 523.833,440.5 682.167,440.5 840.5,440.5C 774.335,441.499 708.002,441.832 641.5,441.5C 641.919,444.325 640.919,446.491 638.5,448C 615.5,448.667 592.5,448.667 569.5,448C 565.749,447.418 564.082,445.251 564.5,441.5C 497.998,441.832 431.665,441.499 365.5,440.5 Z"/></g>
<g><path style="opacity:0.996" fill="#a7cdf9" d="M 198.5,442.5 C 203.801,443.313 205.635,446.313 204,451.5C 201.281,452.444 198.448,452.777 195.5,452.5C 194.857,448.567 195.857,445.234 198.5,442.5 Z"/></g>
<g><path style="opacity:0.996" fill="#edf3f9" d="M 196.5,446.5 C 197.735,446.721 198.735,447.388 199.5,448.5C 200.167,447.833 200.833,447.167 201.5,446.5C 202.452,448.045 202.785,449.712 202.5,451.5C 200.5,451.5 198.5,451.5 196.5,451.5C 196.5,449.833 196.5,448.167 196.5,446.5 Z"/></g>
<g><path style="opacity:0.996" fill="#add0f9" d="M 265.5,442.5 C 272.661,441.997 275.661,445.33 274.5,452.5C 266.1,453.774 263.1,450.44 265.5,442.5 Z"/></g>
<g><path style="opacity:0.996" fill="#f6f7f9" d="M 268.5,446.5 C 269.833,446.5 271.167,446.5 272.5,446.5C 272.5,448.167 272.5,449.833 272.5,451.5C 271.167,451.5 269.833,451.5 268.5,451.5C 268.5,449.833 268.5,448.167 268.5,446.5 Z"/></g>
<g><path style="opacity:0.996" fill="#9dc7f9" d="M 134.5,444.5 C 135.376,444.369 136.043,444.702 136.5,445.5C 134.022,447.564 134.022,449.564 136.5,451.5C 134.288,452.047 132.621,451.047 131.5,448.5C 133.288,447.717 134.288,446.384 134.5,444.5 Z"/></g>
<g><path style="opacity:0.996" fill="#94c4fa" d="M 231.5,443.5 C 234.143,443.858 236.81,444.191 239.5,444.5C 240.48,447.086 240.813,449.753 240.5,452.5C 236.833,452.5 233.167,452.5 229.5,452.5C 229.091,449.145 229.758,446.145 231.5,443.5 Z"/></g>
<g><path style="opacity:0.996" fill="#eff4fa" d="M 235.5,445.5 C 236.5,445.5 237.5,445.5 238.5,445.5C 238.5,447.167 238.5,448.833 238.5,450.5C 237.5,450.5 236.5,450.5 235.5,450.5C 235.5,448.833 235.5,447.167 235.5,445.5 Z"/></g>
<g><path style="opacity:0.996" fill="#f0f5f9" d="M 231.5,445.5 C 232.5,445.5 233.5,445.5 234.5,445.5C 234.5,447.167 234.5,448.833 234.5,450.5C 233.5,450.5 232.5,450.5 231.5,450.5C 231.5,448.833 231.5,447.167 231.5,445.5 Z"/></g>
<g><path style="opacity:0.722" fill="#9ea7b3" d="M 112.5,438.5 C 113.325,442.647 113.825,446.981 114,451.5C 114.278,452.416 114.778,453.082 115.5,453.5C 115.5,453.833 115.5,454.167 115.5,454.5C 115.833,457.167 116.167,459.833 116.5,462.5C 114.689,460.615 113.522,458.281 113,455.5C 112.501,449.843 112.334,444.176 112.5,438.5 Z"/></g>
<g><path style="opacity:0.027" fill="#f4f4f5" d="M 309.5,453.5 C 312.92,455.222 316.586,455.889 320.5,455.5C 320.5,456.5 320.5,457.5 320.5,458.5C 317.722,457.032 314.722,456.199 311.5,456C 310.244,455.583 309.577,454.75 309.5,453.5 Z"/></g>
<g><path style="opacity:0.952" fill="#878686" d="M 884.5,457.5 C 883.5,458.167 882.5,458.833 881.5,459.5C 861.721,458.843 841.388,458.51 820.5,458.5C 801.833,457.167 783.167,457.167 764.5,458.5C 618.007,459.216 470.673,459.216 322.5,458.5C 322.196,457.85 321.863,457.183 321.5,456.5C 415.333,456.167 509.167,455.833 603,455.5C 697.169,455.5 791.002,456.167 884.5,457.5 Z"/></g>
<g><path style="opacity:0.922" fill="#525e6b" d="M 115.5,454.5 C 117.204,457.256 118.537,460.256 119.5,463.5C 118.391,463.443 117.391,463.11 116.5,462.5C 116.167,459.833 115.833,457.167 115.5,454.5 Z"/></g>
<g><path style="opacity:0.086" fill="#9f9f9f" d="M 764.5,458.5 C 783.167,457.167 801.833,457.167 820.5,458.5C 801.255,459.764 782.589,459.764 764.5,458.5 Z"/></g>
<g><path style="opacity:0.996" fill="#1b1c1c" d="M 171.5,462.5 C 191.844,462.167 212.178,462.5 232.5,463.5C 222.333,463.833 212.167,464.167 202,464.5C 191.477,464.499 181.311,463.832 171.5,462.5 Z"/></g>
<g><path style="opacity:0.169" fill="#919296" d="M 116.5,462.5 C 117.391,463.11 118.391,463.443 119.5,463.5C 122.164,465.993 124.997,468.326 128,470.5C 132.98,472.103 137.813,473.77 142.5,475.5C 137.566,475.756 132.566,475.256 127.5,474C 125.934,473.392 124.6,472.558 123.5,471.5C 120.761,468.767 118.427,465.767 116.5,462.5 Z"/></g>
<g><path style="opacity:0.122" fill="#878787" d="M 171.5,473.5 C 173.167,474.167 174.833,474.833 176.5,475.5C 170.974,475.821 165.64,475.488 160.5,474.5C 164.099,473.656 167.766,473.323 171.5,473.5 Z"/></g>
<g><path style="opacity:0.084" fill="#3f4545" d="M 171.5,473.5 C 200.167,473.5 228.833,473.5 257.5,473.5C 256.167,474.167 254.833,474.833 253.5,475.5C 228.468,474.467 202.801,474.467 176.5,475.5C 174.833,474.833 173.167,474.167 171.5,473.5 Z"/></g>
<g><path style="opacity:0.016" fill="#656767" d="M 275.5,471.5 C 274.306,472.272 273.306,473.272 272.5,474.5C 266.256,475.458 259.923,475.791 253.5,475.5C 254.833,474.833 256.167,474.167 257.5,473.5C 263.72,473.897 269.72,473.23 275.5,471.5 Z"/></g>
</svg>
